<svg xmlns="http://www.w3.org/2000/svg" width="64" height="64" class="icon flat-line" data-name="Flat Line" viewBox="0 0 24 24"><path d="m12 21 .88-.38a11 11 0 0 0 6.63-9.26l.43-5.52a1 1 0 0 0-.76-1L12 3 4.82 4.8a1 1 0 0 0-.76 1l.43 5.52a11 11 0 0 0 6.63 9.26Z" style="fill:#c9f0f2;stroke-width:2"/><path d="m9 11 2 2 4-4" style="fill:none;stroke:#4c281c;stroke-linecap:round;stroke-linejoin:round;stroke-width:2"/><path d="m12 21 .88-.38a11 11 0 0 0 6.63-9.26l.43-5.52a1 1 0 0 0-.76-1L12 3 4.82 4.8a1 1 0 0 0-.76 1l.43 5.52a11 11 0 0 0 6.63 9.26Z" data-name="primary" style="fill:none;stroke:#4c281c;stroke-linecap:round;stroke-linejoin:round;stroke-width:2"/></svg>